<?xml version="1.0" encoding="UTF-8" standalone="no"?>
<!-- Created with Inkscape (http://www.inkscape.org/) -->

<svg
   xmlns:dc="http://purl.org/dc/elements/1.1/"
   xmlns:cc="http://creativecommons.org/ns#"
   xmlns:rdf="http://www.w3.org/1999/02/22-rdf-syntax-ns#"
   xmlns:svg="http://www.w3.org/2000/svg"
   xmlns="http://www.w3.org/2000/svg"
   version="1.1"
   width="300"
   height="300"
   id="svg2">
  <defs
     id="defs4" />
  <metadata
     id="metadata7">
    <rdf:RDF>
      <cc:Work
         rdf:about="">
        <dc:format>image/svg+xml</dc:format>
        <dc:type
           rdf:resource="http://purl.org/dc/dcmitype/StillImage" />
        <dc:title></dc:title>
      </cc:Work>
    </rdf:RDF>
  </metadata>
  <g
     transform="translate(0,-752.36215)"
     id="layer1">
    <g
       transform="translate(0,5e-5)"
       id="g2998">
      <path
         d="m 150,1052.3621 -150,0 0,-149.99998 0,-150 150,0 150,0 0,150 0,149.99998 -150,0 z"
         id="path3002"
         style="fill:#f7f7f7" />
      <path
         d="m 10.5,1052.3621 -3.5,0 0,-3 0,-3 -3.5,0 -3.5,0 0,-3.5 0,-3.5 3,0 3,0 0,-3.5 0,-3.5 -3,0 -3,0 0,-3.5 0,-3.5 3,0 3,0 0,-3.5 0,-3.5 -3,0 -3,0 0,-3.5 0,-3.5 3,0 3,0 0,-4 0,-4 -3,0 -3,0 0,-3 0,-2.99998 3,0 3,0 0,-4 0,-4 -3,0 -3,0 0,-3.5 0,-3.5 3,0 3,0 0,-3.5 0,-3.5 -3,0 -3,0 0,-3.5 0,-3.5 3,0 3,0 0,-3.5 0,-3.5 -3,0 -3,0 0,-3.5 0,-3.5 3,0 3,0 0,-3.5 0,-3.5 -3,0 -3,0 0,-3.5 0,-3.5 3,0 3,0 0,-3.5 0,-3.5 -3,0 -3,0 0,-3.5 0,-3.5 3,0 3,0 0,-3.5 0,-3.5 -3,0 -3,0 0,-3.5 0,-3.5 3,0 3,0 0,-3.5 0,-3.5 -3,0 -3,0 0,-3.5 0,-3.5 3,0 3,0 0,-3.5 0,-3.5 -3,0 -3,0 0,-3.5 0,-3.5 3,0 3,0 0,-3.5 0,-3.5 -3,0 -3,0 0,-3.5 0,-3.5 3,0 3,0 0,-3.5 0,-3.5 -3,0 -3,0 0,-3.5 0,-3.5 3,0 3,0 0,-3.5 0,-3.5 -3,0 -3,0 0,-3.5 0,-3.5 3,0 3,0 0,-3.5 0,-3.5 -3,0 -3,0 0,-3.5 0,-3.5 3,0 3,0 0,-3.5 0,-3.5 -3,0 -3,0 0,-3.5 0,-3.5 3,0 3,0 0,-3.5 0,-3.5 -3,0 -3,0 0,-3.5 0,-3.5 3,0 3,0 0,-3.5 0,-3.5 -3,0 -3,0 0,-3.5 0,-3.5 3,0 3,0 0,-3.5 0,-3.5 -3,0 -3,0 0,-3.5 0,-3.5 3,0 3,0 0,-3.5 0,-3.5 -3,0 -3,0 0,-3.5 0,-3.5 3.5,0 3.5,0 0,-3 0,-3 3.5,0 3.5,0 0,3 0,3 3.5,0 3.5,0 0,-3 0,-3 3.5,0 3.5,0 0,3 0,3 3.5,0 3.5,0 0,-3 0,-3 3.5,0 3.5,0 0,3 0,3 3.5,0 3.5,0 0,-3 0,-3 3.5,0 3.5,0 0,3 0,3 3.5,0 3.5,0 0,-3 0,-3 3.5,0 3.5,0 0,3 0,3 3.5,0 3.5,0 0,-3 0,-3 3.5,0 3.5,0 0,3 0,3 3.5,0 3.5,0 0,-3 0,-3 3.5,0 3.5,0 0,3 0,3 3.5,0 3.5,0 0,-3 0,-3 3.5,0 3.5,0 0,3 0,3 3.5,0 3.5,0 0,-3 0,-3 3.5,0 3.5,0 0,3 0,3 3.5,0 3.5,0 0,-3 0,-3 3.5,0 3.5,0 0,3 0,3 3.5,0 3.5,0 0,-3 0,-3 3.5,0 3.5,0 0,3 0,3 3.5,0 3.5,0 0,-3 0,-3 3.5,0 3.5,0 0,3 0,3 3.5,0 3.5,0 0,-3 0,-3 3.5,0 3.5,0 0,3 0,3 3.5,0 3.5,0 0,-3 0,-3 3.5,0 3.5,0 0,3 0,3 3.5,0 3.5,0 0,-3 0,-3 3.5,0 3.5,0 0,3 0,3 3.5,0 3.5,0 0,-3 0,-3 3.5,0 3.5,0 0,3 0,3 3.5,0 3.5,0 0,-3 0,-3 4,0 4,0 0,3 0,3 3.5,0 3.5,0 0,-3 0,-3 3.5,0 3.5,0 0,3 0,3 3.5,0 3.5,0 0,-3 0,-3 3.5,0 3.5,0 0,3 0,3 3.5,0 3.5,0 0,-3 0,-3 3.5,0 3.5,0 0,3 0,3 3.5,0 3.5,0 0,-3 0,-3 3.5,0 3.5,0 0,3 0,3 2.5,0 2.5,0 0,3.5 0,3.5 -2.5,0 -2.5,0 0,3.5 0,3.5 2.5,0 2.5,0 0,3.5 0,3.5 -2.5,0 -2.5,0 0,3.5 0,3.5 2.5,0 2.5,0 0,3.5 0,3.5 -2.5,0 -2.5,0 0,3.5 0,3.5 2.5,0 2.5,0 0,3.5 0,3.5 -2.5,0 -2.5,0 0,3.5 0,3.5 2.5,0 2.5,0 0,3.5 0,3.5 -2.5,0 -2.5,0 0,3.5 0,3.5 2.5,0 2.5,0 0,3.5 0,3.5 -2.5,0 -2.5,0 0,3.5 0,3.5 2.5,0 2.5,0 0,3.5 0,3.5 -2.5,0 -2.5,0 0,3.5 0,3.5 2.5,0 2.5,0 0,3.5 0,3.5 -2.5,0 -2.5,0 0,3.5 0,3.5 2.5,0 2.5,0 0,3.5 0,3.5 -2.5,0 -2.5,0 0,3.5 0,3.5 2.5,0 2.5,0 0,3.5 0,3.5 -2.5,0 -2.5,0 0,3.5 0,3.5 2.5,0 2.5,0 0,3.5 0,3.5 -2.5,0 -2.5,0 0,3.5 0,3.5 2.5,0 2.5,0 0,3.5 0,3.5 -2.5,0 -2.5,0 0,3.5 0,3.5 2.5,0 2.5,0 0,3.5 0,3.5 -2.5,0 -2.5,0 0,3.5 0,3.5 2.5,0 2.5,0 0,3.5 0,3.5 -2.5,0 -2.5,0 0,3.5 0,3.5 2.5,0 2.5,0 0,3.5 0,3.5 -2.5,0 -2.5,0 0,3.5 0,3.5 2.5,0 2.5,0 0,3.5 0,3.5 -2.5,0 -2.5,0 0,3.5 0,3.5 2.5,0 2.5,0 0,3.5 0,3.5 -2.5,0 -2.5,0 0,4 0,4 2.5,0 2.5,0 0,2.99998 0,3 -2.5,0 -2.5,0 0,4 0,4 2.5,0 2.5,0 0,3.5 0,3.5 -2.5,0 -2.5,0 0,3.5 0,3.5 2.5,0 2.5,0 0,3.5 0,3.5 -2.5,0 -2.5,0 0,3.5 0,3.5 2.5,0 2.5,0 0,3.5 0,3.5 -2.5,0 -2.5,0 0,3 0,3 -3.5,0 -3.5,0 0,-3 0,-3 -3.5,0 -3.5,0 0,3 0,3 -3.5,0 -3.5,0 0,-3 0,-3 -3.5,0 -3.5,0 0,3 0,3 -3.5,0 -3.5,0 0,-3 0,-3 -3.5,0 -3.5,0 0,3 0,3 -3.5,0 -3.5,0 0,-3 0,-3 -4,0 -4,0 0,3 0,3 -3,0 -3,0 0,-3 0,-3 -4,0 -4,0 0,3 0,3 -3.5,0 -3.5,0 0,-3 0,-3 -3.5,0 -3.5,0 0,3 0,3 -3.5,0 -3.5,0 0,-3 0,-3 -3.5,0 -3.5,0 0,3 0,3 -3.5,0 -3.5,0 0,-3 0,-3 -3.5,0 -3.5,0 0,3 0,3 -3.5,0 -3.5,0 0,-3 0,-3 -3.5,0 -3.5,0 0,3 0,3 -3.5,0 -3.5,0 0,-3 0,-3 -3.5,0 -3.5,0 0,3 0,3 -3.5,0 -3.5,0 0,-3 0,-3 -3.5,0 -3.5,0 0,3 0,3 -3.5,0 -3.5,0 0,-3 0,-3 -3.5,0 -3.5,0 0,3 0,3 -3.5,0 -3.5,0 0,-3 0,-3 -3.5,0 -3.5,0 0,3 0,3 -3.5,0 -3.5,0 0,-3 0,-3 -3.5,0 -3.5,0 0,3 0,3 -3.5,0 -3.5,0 0,-3 0,-3 -3.5,0 -3.5,0 0,3 0,3 -3.5,0 -3.5,0 0,-3 0,-3 -3.5,0 -3.5,0 0,3 0,3 -3.5,0 -3.5,0 0,-3 0,-3 -3.5,0 -3.5,0 0,3 0,3 -3.5,0 -3.5,0 0,-3 0,-3 -3.5,0 -3.5,0 0,3 0,3 -3.5,0 -3.5,0 0,-3 0,-3 -3.5,0 -3.5,0 0,3 0,3 -3.5,0 -3.5,0 0,-3 0,-3 -3.5,0 -3.5,0 0,3 0,3 -3.5,0 z m 81,-46 21.5,0 0,-39.49998 0,-39.5 8,0 8,0 0,39.5 0,39.49998 21.5,0 21.5,0 0,-98.49998 0,-98.5 -21.5,0 -21.5,0 0,38.5 0,38.5 -8,0 -8,0 0,-38.5 0,-38.5 -21.5,0 -21.5,0 0,98.5 0,98.49998 21.5,0 z m 118,0 21.5,0 0,-98.49998 0,-98.5 -21.5,0 -21.5,0 0,98.5 0,98.49998 21.5,0 z"
         id="path3000"
         style="fill:#4e4e4e" />
    </g>
  </g>
</svg>
